<mxfile host="app.diagrams.net" modified="2023-03-04T21:24:19.652Z" agent="5.0 (Windows NT 10.0; Win64; x64) AppleWebKit/537.36 (KHTML, like Gecko) Chrome/110.0.0.0 Safari/537.36" etag="jc3ypUs7MueRdmimfQuP" version="20.8.23" type="github">
  <diagram name="Page-1" id="jc2M-WlmoJxvr903Y05k">
    <mxGraphModel dx="1434" dy="796" grid="1" gridSize="10" guides="1" tooltips="1" connect="1" arrows="1" fold="1" page="1" pageScale="1" pageWidth="1654" pageHeight="1169" math="0" shadow="0">
      <root>
        <mxCell id="0" />
        <mxCell id="1" parent="0" />
        <mxCell id="LU-75ut4EFQWjjtrpcfp-1" value="" style="rounded=1;whiteSpace=wrap;html=1;" vertex="1" parent="1">
          <mxGeometry x="340" y="190" width="210" height="190" as="geometry" />
        </mxCell>
        <mxCell id="LU-75ut4EFQWjjtrpcfp-2" value="&lt;b&gt;Control Plane&lt;/b&gt;" style="text;html=1;strokeColor=none;fillColor=none;align=center;verticalAlign=middle;whiteSpace=wrap;rounded=0;" vertex="1" parent="1">
          <mxGeometry x="390" y="200" width="110" height="30" as="geometry" />
        </mxCell>
        <mxCell id="LU-75ut4EFQWjjtrpcfp-3" value="HPA Controller" style="rounded=1;whiteSpace=wrap;html=1;fillColor=#B3B3B3;" vertex="1" parent="1">
          <mxGeometry x="400" y="310" width="90" height="50" as="geometry" />
        </mxCell>
        <mxCell id="LU-75ut4EFQWjjtrpcfp-4" value="Ad hoc control loop (every 15 seconds by default), querying metrics api server for metric data" style="text;html=1;strokeColor=none;fillColor=none;align=center;verticalAlign=middle;whiteSpace=wrap;rounded=0;" vertex="1" parent="1">
          <mxGeometry x="320" y="390" width="115" height="80" as="geometry" />
        </mxCell>
        <mxCell id="LU-75ut4EFQWjjtrpcfp-5" value="" style="rounded=1;whiteSpace=wrap;html=1;" vertex="1" parent="1">
          <mxGeometry x="885" y="210" width="280" height="190" as="geometry" />
        </mxCell>
        <mxCell id="LU-75ut4EFQWjjtrpcfp-6" value="&lt;b&gt;Worker Node 1&lt;/b&gt;" style="text;html=1;strokeColor=none;fillColor=none;align=center;verticalAlign=middle;whiteSpace=wrap;rounded=0;" vertex="1" parent="1">
          <mxGeometry x="1005" y="220" width="110" height="30" as="geometry" />
        </mxCell>
        <mxCell id="LU-75ut4EFQWjjtrpcfp-7" value="Pod 1" style="rounded=1;whiteSpace=wrap;html=1;" vertex="1" parent="1">
          <mxGeometry x="990" y="250" width="45" height="20" as="geometry" />
        </mxCell>
        <mxCell id="LU-75ut4EFQWjjtrpcfp-8" value="Pod 2" style="rounded=1;whiteSpace=wrap;html=1;" vertex="1" parent="1">
          <mxGeometry x="990" y="300" width="45" height="20" as="geometry" />
        </mxCell>
        <mxCell id="LU-75ut4EFQWjjtrpcfp-9" value="Pod 3" style="rounded=1;whiteSpace=wrap;html=1;" vertex="1" parent="1">
          <mxGeometry x="990" y="350" width="45" height="20" as="geometry" />
        </mxCell>
        <mxCell id="LU-75ut4EFQWjjtrpcfp-10" value="" style="rounded=1;whiteSpace=wrap;html=1;" vertex="1" parent="1">
          <mxGeometry x="1045" y="275" width="114" height="115" as="geometry" />
        </mxCell>
        <mxCell id="LU-75ut4EFQWjjtrpcfp-11" value="&lt;b&gt;kubelet&lt;/b&gt;" style="text;html=1;strokeColor=none;fillColor=none;align=center;verticalAlign=middle;whiteSpace=wrap;rounded=0;" vertex="1" parent="1">
          <mxGeometry x="1065" y="290" width="74" height="20" as="geometry" />
        </mxCell>
        <mxCell id="LU-75ut4EFQWjjtrpcfp-12" value="cAdvisor" style="rounded=1;whiteSpace=wrap;html=1;fillColor=#B3B3B3;" vertex="1" parent="1">
          <mxGeometry x="1065" y="320" width="84" height="50" as="geometry" />
        </mxCell>
        <mxCell id="LU-75ut4EFQWjjtrpcfp-13" value="" style="rounded=1;whiteSpace=wrap;html=1;fillColor=#B3B3B3;rotation=90;" vertex="1" parent="1">
          <mxGeometry x="870" y="295" width="110" height="50" as="geometry" />
        </mxCell>
        <mxCell id="LU-75ut4EFQWjjtrpcfp-15" value="Deployment" style="text;html=1;strokeColor=none;fillColor=none;align=center;verticalAlign=middle;whiteSpace=wrap;rounded=0;rotation=90;" vertex="1" parent="1">
          <mxGeometry x="885" y="310" width="115" height="20" as="geometry" />
        </mxCell>
        <mxCell id="LU-75ut4EFQWjjtrpcfp-16" value="" style="rounded=1;whiteSpace=wrap;html=1;" vertex="1" parent="1">
          <mxGeometry x="885" y="430" width="280" height="190" as="geometry" />
        </mxCell>
        <mxCell id="LU-75ut4EFQWjjtrpcfp-17" value="&lt;b&gt;Worker Node 2&lt;/b&gt;" style="text;html=1;strokeColor=none;fillColor=none;align=center;verticalAlign=middle;whiteSpace=wrap;rounded=0;" vertex="1" parent="1">
          <mxGeometry x="1005" y="440" width="110" height="30" as="geometry" />
        </mxCell>
        <mxCell id="LU-75ut4EFQWjjtrpcfp-18" value="Pod 1" style="rounded=1;whiteSpace=wrap;html=1;" vertex="1" parent="1">
          <mxGeometry x="990" y="470" width="45" height="20" as="geometry" />
        </mxCell>
        <mxCell id="LU-75ut4EFQWjjtrpcfp-19" value="Pod 2" style="rounded=1;whiteSpace=wrap;html=1;" vertex="1" parent="1">
          <mxGeometry x="990" y="520" width="45" height="20" as="geometry" />
        </mxCell>
        <mxCell id="LU-75ut4EFQWjjtrpcfp-20" value="" style="rounded=1;whiteSpace=wrap;html=1;" vertex="1" parent="1">
          <mxGeometry x="1045" y="495" width="114" height="115" as="geometry" />
        </mxCell>
        <mxCell id="LU-75ut4EFQWjjtrpcfp-21" value="&lt;b&gt;kubelet&lt;/b&gt;" style="text;html=1;strokeColor=none;fillColor=none;align=center;verticalAlign=middle;whiteSpace=wrap;rounded=0;" vertex="1" parent="1">
          <mxGeometry x="1065" y="510" width="74" height="20" as="geometry" />
        </mxCell>
        <mxCell id="LU-75ut4EFQWjjtrpcfp-22" value="cAdvisor" style="rounded=1;whiteSpace=wrap;html=1;fillColor=#B3B3B3;" vertex="1" parent="1">
          <mxGeometry x="1065" y="540" width="84" height="50" as="geometry" />
        </mxCell>
        <mxCell id="LU-75ut4EFQWjjtrpcfp-23" value="" style="rounded=1;whiteSpace=wrap;html=1;fillColor=#B3B3B3;rotation=90;" vertex="1" parent="1">
          <mxGeometry x="870" y="515" width="110" height="50" as="geometry" />
        </mxCell>
        <mxCell id="LU-75ut4EFQWjjtrpcfp-25" value="Deployment" style="text;html=1;strokeColor=none;fillColor=none;align=center;verticalAlign=middle;whiteSpace=wrap;rounded=0;rotation=90;" vertex="1" parent="1">
          <mxGeometry x="885" y="530" width="115" height="20" as="geometry" />
        </mxCell>
        <mxCell id="LU-75ut4EFQWjjtrpcfp-32" value="A scale subresource that belongs to a deployment resource is used by the HPA Controller to set replica count and examine current state" style="text;html=1;strokeColor=none;fillColor=none;align=left;verticalAlign=middle;whiteSpace=wrap;rounded=0;" vertex="1" parent="1">
          <mxGeometry x="140" y="500" width="146" height="120" as="geometry" />
        </mxCell>
        <mxCell id="LU-75ut4EFQWjjtrpcfp-33" value="The metrics API server queries kubelets cAdvisor process on each cluster node to gather metrics and aggregate them for querying" style="text;html=1;strokeColor=none;fillColor=none;align=center;verticalAlign=middle;whiteSpace=wrap;rounded=0;" vertex="1" parent="1">
          <mxGeometry x="435" y="590" width="145" height="100" as="geometry" />
        </mxCell>
        <mxCell id="LU-75ut4EFQWjjtrpcfp-34" value="The HPA Controller can set the replica count to a new value if scaling in or out is detected. It uses a basic ratio algorithm between desired metrics and current metrics to figure this out" style="text;html=1;strokeColor=none;fillColor=none;align=left;verticalAlign=middle;whiteSpace=wrap;rounded=0;movable=1;resizable=1;rotatable=1;deletable=1;editable=1;locked=0;connectable=1;" vertex="1" parent="1">
          <mxGeometry x="80" y="60" width="285" height="65" as="geometry" />
        </mxCell>
        <mxCell id="LU-75ut4EFQWjjtrpcfp-36" value="KUBERNETES CLUSTER" style="text;html=1;strokeColor=none;fillColor=none;align=center;verticalAlign=middle;whiteSpace=wrap;rounded=0;fontStyle=1" vertex="1" parent="1">
          <mxGeometry x="360" y="110" width="190" height="30" as="geometry" />
        </mxCell>
        <mxCell id="LU-75ut4EFQWjjtrpcfp-37" value="With HPA, pod replicas get added (scaled out) or removed (scaled in) action dictated by the HPV" style="text;html=1;strokeColor=none;fillColor=none;align=center;verticalAlign=middle;whiteSpace=wrap;rounded=0;" vertex="1" parent="1">
          <mxGeometry x="920" y="140" width="170" height="70" as="geometry" />
        </mxCell>
        <mxCell id="LU-75ut4EFQWjjtrpcfp-38" value="" style="endArrow=classic;html=1;rounded=0;dashed=1;entryX=0;entryY=0.75;entryDx=0;entryDy=0;" edge="1" parent="1" target="LU-75ut4EFQWjjtrpcfp-7">
          <mxGeometry width="50" height="50" relative="1" as="geometry">
            <mxPoint x="950" y="320" as="sourcePoint" />
            <mxPoint x="1000" y="270" as="targetPoint" />
          </mxGeometry>
        </mxCell>
        <mxCell id="LU-75ut4EFQWjjtrpcfp-39" value="" style="endArrow=classic;html=1;rounded=0;dashed=1;entryX=0;entryY=0.5;entryDx=0;entryDy=0;exitX=0.5;exitY=0;exitDx=0;exitDy=0;" edge="1" parent="1" source="LU-75ut4EFQWjjtrpcfp-15" target="LU-75ut4EFQWjjtrpcfp-8">
          <mxGeometry width="50" height="50" relative="1" as="geometry">
            <mxPoint x="960" y="330" as="sourcePoint" />
            <mxPoint x="1000" y="275" as="targetPoint" />
          </mxGeometry>
        </mxCell>
        <mxCell id="LU-75ut4EFQWjjtrpcfp-40" value="" style="endArrow=classic;html=1;rounded=0;dashed=1;entryX=0;entryY=0.5;entryDx=0;entryDy=0;exitX=0.5;exitY=0;exitDx=0;exitDy=0;" edge="1" parent="1" source="LU-75ut4EFQWjjtrpcfp-15" target="LU-75ut4EFQWjjtrpcfp-9">
          <mxGeometry width="50" height="50" relative="1" as="geometry">
            <mxPoint x="970" y="340" as="sourcePoint" />
            <mxPoint x="1010" y="285" as="targetPoint" />
          </mxGeometry>
        </mxCell>
        <mxCell id="LU-75ut4EFQWjjtrpcfp-41" value="" style="endArrow=classic;html=1;rounded=0;dashed=1;exitX=0.5;exitY=0;exitDx=0;exitDy=0;entryX=0;entryY=0.75;entryDx=0;entryDy=0;" edge="1" parent="1" source="LU-75ut4EFQWjjtrpcfp-25" target="LU-75ut4EFQWjjtrpcfp-18">
          <mxGeometry width="50" height="50" relative="1" as="geometry">
            <mxPoint x="980" y="350" as="sourcePoint" />
            <mxPoint x="1230" y="390" as="targetPoint" />
          </mxGeometry>
        </mxCell>
        <mxCell id="LU-75ut4EFQWjjtrpcfp-42" value="" style="endArrow=classic;html=1;rounded=0;dashed=1;entryX=0;entryY=0.75;entryDx=0;entryDy=0;exitX=0.5;exitY=0;exitDx=0;exitDy=0;" edge="1" parent="1" source="LU-75ut4EFQWjjtrpcfp-25" target="LU-75ut4EFQWjjtrpcfp-19">
          <mxGeometry width="50" height="50" relative="1" as="geometry">
            <mxPoint x="990" y="360" as="sourcePoint" />
            <mxPoint x="1030" y="305" as="targetPoint" />
          </mxGeometry>
        </mxCell>
        <mxCell id="LU-75ut4EFQWjjtrpcfp-26" value="Metrics API &lt;br&gt;Server" style="rounded=1;whiteSpace=wrap;html=1;" vertex="1" parent="1">
          <mxGeometry x="680" y="495" width="90" height="90" as="geometry" />
        </mxCell>
        <mxCell id="LU-75ut4EFQWjjtrpcfp-46" value="" style="curved=1;endArrow=classic;html=1;rounded=0;entryX=0;entryY=0.5;entryDx=0;entryDy=0;exitX=1;exitY=0.75;exitDx=0;exitDy=0;" edge="1" parent="1" source="LU-75ut4EFQWjjtrpcfp-26" target="LU-75ut4EFQWjjtrpcfp-22">
          <mxGeometry width="50" height="50" relative="1" as="geometry">
            <mxPoint x="810" y="650" as="sourcePoint" />
            <mxPoint x="860" y="600" as="targetPoint" />
            <Array as="points">
              <mxPoint x="860" y="650" />
              <mxPoint x="950" y="600" />
            </Array>
          </mxGeometry>
        </mxCell>
        <mxCell id="LU-75ut4EFQWjjtrpcfp-47" value="" style="curved=1;endArrow=classic;html=1;rounded=0;exitX=1;exitY=0.389;exitDx=0;exitDy=0;exitPerimeter=0;entryX=0;entryY=0.5;entryDx=0;entryDy=0;" edge="1" parent="1" source="LU-75ut4EFQWjjtrpcfp-26" target="LU-75ut4EFQWjjtrpcfp-12">
          <mxGeometry width="50" height="50" relative="1" as="geometry">
            <mxPoint x="810" y="480" as="sourcePoint" />
            <mxPoint x="860" y="430" as="targetPoint" />
            <Array as="points">
              <mxPoint x="860" y="480" />
              <mxPoint x="810" y="430" />
            </Array>
          </mxGeometry>
        </mxCell>
        <mxCell id="LU-75ut4EFQWjjtrpcfp-48" value="VPA Recommender" style="rounded=1;whiteSpace=wrap;html=1;" vertex="1" parent="1">
          <mxGeometry x="640" y="360" width="90" height="80" as="geometry" />
        </mxCell>
        <mxCell id="LU-75ut4EFQWjjtrpcfp-49" value="" style="endArrow=classic;html=1;rounded=0;exitX=0.5;exitY=0;exitDx=0;exitDy=0;" edge="1" parent="1" source="LU-75ut4EFQWjjtrpcfp-26">
          <mxGeometry width="50" height="50" relative="1" as="geometry">
            <mxPoint x="700" y="430" as="sourcePoint" />
            <mxPoint x="710" y="440" as="targetPoint" />
          </mxGeometry>
        </mxCell>
        <mxCell id="LU-75ut4EFQWjjtrpcfp-50" value="VPA Resource" style="rounded=1;whiteSpace=wrap;html=1;" vertex="1" parent="1">
          <mxGeometry x="570" y="500" width="90" height="80" as="geometry" />
        </mxCell>
        <mxCell id="LU-75ut4EFQWjjtrpcfp-51" value="" style="endArrow=classic;html=1;rounded=0;exitX=0.5;exitY=0;exitDx=0;exitDy=0;entryX=0.25;entryY=1;entryDx=0;entryDy=0;" edge="1" parent="1" source="LU-75ut4EFQWjjtrpcfp-50" target="LU-75ut4EFQWjjtrpcfp-48">
          <mxGeometry width="50" height="50" relative="1" as="geometry">
            <mxPoint x="700" y="495" as="sourcePoint" />
            <mxPoint x="700" y="440" as="targetPoint" />
          </mxGeometry>
        </mxCell>
      </root>
    </mxGraphModel>
  </diagram>
</mxfile>
